<svg width="583" height="583" viewBox="0 0 583 583" fill="none" xmlns="http://www.w3.org/2000/svg">
<path d="M416.667 366.667H390.333L381 357.667C413.667 319.667 433.333 270.333 433.333 216.667C433.333 97 336.333 0 216.667 0C97 0 0 97 0 216.667C0 336.333 97 433.333 216.667 433.333C270.333 433.333 319.667 413.667 357.667 381L366.667 390.333V416.667L533.333 583L583 533.333L416.667 366.667ZM216.667 366.667C133.667 366.667 66.6667 299.667 66.6667 216.667C66.6667 133.667 133.667 66.6667 216.667 66.6667C299.667 66.6667 366.667 133.667 366.667 216.667C366.667 299.667 299.667 366.667 216.667 366.667Z" fill="white"/>
</svg>
